<mxfile host="app.diagrams.net" modified="2021-05-21T04:36:59.408Z" agent="5.0 (Windows NT 10.0; Win64; x64) AppleWebKit/537.36 (KHTML, like Gecko) Chrome/90.0.4430.93 Safari/537.36" etag="AFwwtF7QT1fNQHnCYi32" version="14.6.12" type="github">
  <diagram id="mJHM9Z8P4OZ1wgG9llbX" name="Page-1">
    <mxGraphModel dx="1185" dy="588" grid="1" gridSize="10" guides="1" tooltips="1" connect="1" arrows="1" fold="1" page="1" pageScale="1" pageWidth="827" pageHeight="1169" math="0" shadow="0">
      <root>
        <mxCell id="0" />
        <mxCell id="1" parent="0" />
        <mxCell id="VphRcZ4iSKFn43iIkgUj-14" style="edgeStyle=orthogonalEdgeStyle;rounded=0;orthogonalLoop=1;jettySize=auto;html=1;entryX=0;entryY=0.5;entryDx=0;entryDy=0;" edge="1" parent="1" source="VphRcZ4iSKFn43iIkgUj-5" target="VphRcZ4iSKFn43iIkgUj-7">
          <mxGeometry relative="1" as="geometry" />
        </mxCell>
        <mxCell id="VphRcZ4iSKFn43iIkgUj-5" value="&lt;span style=&quot;font-size: 16px&quot;&gt;计算参数&lt;br&gt;模型&lt;/span&gt;" style="rounded=0;whiteSpace=wrap;html=1;" vertex="1" parent="1">
          <mxGeometry x="101" y="490" width="113" height="50" as="geometry" />
        </mxCell>
        <mxCell id="VphRcZ4iSKFn43iIkgUj-28" style="edgeStyle=orthogonalEdgeStyle;rounded=0;orthogonalLoop=1;jettySize=auto;html=1;entryX=0;entryY=0.5;entryDx=0;entryDy=0;" edge="1" parent="1" source="VphRcZ4iSKFn43iIkgUj-7" target="VphRcZ4iSKFn43iIkgUj-23">
          <mxGeometry relative="1" as="geometry" />
        </mxCell>
        <mxCell id="VphRcZ4iSKFn43iIkgUj-7" value="&lt;font style=&quot;font-size: 17px&quot;&gt;模型&lt;br&gt;检验&lt;/font&gt;" style="rounded=0;whiteSpace=wrap;html=1;" vertex="1" parent="1">
          <mxGeometry x="260" y="492.5" width="110" height="45" as="geometry" />
        </mxCell>
        <mxCell id="VphRcZ4iSKFn43iIkgUj-31" style="edgeStyle=orthogonalEdgeStyle;rounded=0;orthogonalLoop=1;jettySize=auto;html=1;entryX=1;entryY=0.5;entryDx=0;entryDy=0;" edge="1" parent="1" source="VphRcZ4iSKFn43iIkgUj-8" target="VphRcZ4iSKFn43iIkgUj-20">
          <mxGeometry relative="1" as="geometry">
            <Array as="points">
              <mxPoint x="610" y="618" />
            </Array>
          </mxGeometry>
        </mxCell>
        <mxCell id="VphRcZ4iSKFn43iIkgUj-8" value="&lt;font style=&quot;font-size: 17px&quot;&gt;更新&lt;br&gt;局内点&lt;/font&gt;" style="rounded=0;whiteSpace=wrap;html=1;" vertex="1" parent="1">
          <mxGeometry x="560" y="491.5" width="110" height="46" as="geometry" />
        </mxCell>
        <mxCell id="VphRcZ4iSKFn43iIkgUj-13" style="edgeStyle=orthogonalEdgeStyle;rounded=0;orthogonalLoop=1;jettySize=auto;html=1;entryX=0.5;entryY=0;entryDx=0;entryDy=0;" edge="1" parent="1" source="VphRcZ4iSKFn43iIkgUj-11" target="VphRcZ4iSKFn43iIkgUj-5">
          <mxGeometry relative="1" as="geometry" />
        </mxCell>
        <mxCell id="VphRcZ4iSKFn43iIkgUj-11" value="&lt;font style=&quot;font-size: 16px&quot;&gt;采样&lt;/font&gt;" style="rounded=0;whiteSpace=wrap;html=1;" vertex="1" parent="1">
          <mxGeometry x="107" y="391" width="100" height="40" as="geometry" />
        </mxCell>
        <mxCell id="VphRcZ4iSKFn43iIkgUj-25" style="edgeStyle=orthogonalEdgeStyle;rounded=0;orthogonalLoop=1;jettySize=auto;html=1;entryX=0.5;entryY=1;entryDx=0;entryDy=0;" edge="1" parent="1" source="VphRcZ4iSKFn43iIkgUj-15" target="VphRcZ4iSKFn43iIkgUj-5">
          <mxGeometry relative="1" as="geometry" />
        </mxCell>
        <mxCell id="VphRcZ4iSKFn43iIkgUj-26" style="edgeStyle=orthogonalEdgeStyle;rounded=0;orthogonalLoop=1;jettySize=auto;html=1;entryX=0.5;entryY=0;entryDx=0;entryDy=0;" edge="1" parent="1" source="VphRcZ4iSKFn43iIkgUj-15" target="VphRcZ4iSKFn43iIkgUj-27">
          <mxGeometry relative="1" as="geometry">
            <mxPoint x="157" y="710" as="targetPoint" />
          </mxGeometry>
        </mxCell>
        <mxCell id="VphRcZ4iSKFn43iIkgUj-15" value="&lt;font style=&quot;font-size: 17px&quot;&gt;达到最大&lt;br&gt;迭代次数&lt;/font&gt;" style="rhombus;whiteSpace=wrap;html=1;" vertex="1" parent="1">
          <mxGeometry x="72" y="570" width="170" height="95.5" as="geometry" />
        </mxCell>
        <mxCell id="VphRcZ4iSKFn43iIkgUj-24" style="edgeStyle=orthogonalEdgeStyle;rounded=0;orthogonalLoop=1;jettySize=auto;html=1;entryX=1;entryY=0.5;entryDx=0;entryDy=0;" edge="1" parent="1" source="VphRcZ4iSKFn43iIkgUj-20" target="VphRcZ4iSKFn43iIkgUj-15">
          <mxGeometry relative="1" as="geometry" />
        </mxCell>
        <mxCell id="VphRcZ4iSKFn43iIkgUj-20" value="&lt;font style=&quot;font-size: 17px&quot;&gt;重采样&lt;/font&gt;" style="rounded=0;whiteSpace=wrap;html=1;" vertex="1" parent="1">
          <mxGeometry x="420" y="597.75" width="100" height="40" as="geometry" />
        </mxCell>
        <mxCell id="VphRcZ4iSKFn43iIkgUj-29" style="edgeStyle=orthogonalEdgeStyle;rounded=0;orthogonalLoop=1;jettySize=auto;html=1;exitX=1;exitY=0.5;exitDx=0;exitDy=0;entryX=0;entryY=0.5;entryDx=0;entryDy=0;" edge="1" parent="1" source="VphRcZ4iSKFn43iIkgUj-23" target="VphRcZ4iSKFn43iIkgUj-8">
          <mxGeometry relative="1" as="geometry" />
        </mxCell>
        <mxCell id="VphRcZ4iSKFn43iIkgUj-32" style="edgeStyle=orthogonalEdgeStyle;rounded=0;orthogonalLoop=1;jettySize=auto;html=1;exitX=0.5;exitY=1;exitDx=0;exitDy=0;entryX=0.5;entryY=0;entryDx=0;entryDy=0;" edge="1" parent="1" source="VphRcZ4iSKFn43iIkgUj-23" target="VphRcZ4iSKFn43iIkgUj-20">
          <mxGeometry relative="1" as="geometry" />
        </mxCell>
        <mxCell id="VphRcZ4iSKFn43iIkgUj-23" value="&lt;font style=&quot;font-size: 17px&quot;&gt;损失更小&lt;/font&gt;" style="rhombus;whiteSpace=wrap;html=1;" vertex="1" parent="1">
          <mxGeometry x="410" y="474" width="120" height="80" as="geometry" />
        </mxCell>
        <mxCell id="VphRcZ4iSKFn43iIkgUj-27" value="&lt;font style=&quot;font-size: 17px&quot;&gt;保存当前&lt;br&gt;最优模型&lt;/font&gt;" style="rounded=0;whiteSpace=wrap;html=1;" vertex="1" parent="1">
          <mxGeometry x="97" y="710" width="120" height="60" as="geometry" />
        </mxCell>
      </root>
    </mxGraphModel>
  </diagram>
</mxfile>
